<svg xmlns="http://www.w3.org/2000/svg" xmlns:xlink="http://www.w3.org/1999/xlink" width="500" zoomAndPan="magnify" viewBox="0 0 375 374.999991" height="500" preserveAspectRatio="xMidYMid meet" version="1.0"><metadata><ContainsAiGeneratedContent>Yes</ContainsAiGeneratedContent></metadata><defs><g/></defs><g fill="#171716" fill-opacity="1"><g transform="translate(114.862226, 209.624986)"><g><path d="M 31.53125 -5.796875 C 33.289062 -5.796875 34.96875 -6.21875 36.5625 -7.0625 C 38.164062 -7.914062 39.601562 -9.097656 40.875 -10.609375 L 41.328125 -10.328125 C 39.515625 -7.066406 37.066406 -4.453125 33.984375 -2.484375 C 30.898438 -0.523438 27.515625 0.453125 23.828125 0.453125 C 20.023438 0.453125 16.566406 -0.570312 13.453125 -2.625 C 10.347656 -4.675781 7.859375 -7.4375 5.984375 -10.90625 C 4.109375 -14.382812 3.171875 -18.238281 3.171875 -22.46875 C 3.171875 -26.695312 4.109375 -30.546875 5.984375 -34.015625 C 7.859375 -37.492188 10.347656 -40.257812 13.453125 -42.3125 C 16.566406 -44.375 20.023438 -45.40625 23.828125 -45.40625 C 27.148438 -45.40625 30.125 -44.617188 32.75 -43.046875 C 35.382812 -41.472656 37.59375 -39.34375 39.375 -36.65625 C 41.15625 -33.96875 42.378906 -30.898438 43.046875 -27.453125 L 16.765625 -27.453125 C 16.765625 -23.472656 17.425781 -19.832031 18.75 -16.53125 C 20.082031 -13.238281 21.863281 -10.625 24.09375 -8.6875 C 26.332031 -6.757812 28.8125 -5.796875 31.53125 -5.796875 Z M 23.828125 -44.859375 C 22.566406 -44.859375 21.523438 -44.390625 20.703125 -43.453125 C 19.890625 -42.515625 19.210938 -41.304688 18.671875 -39.828125 C 18.128906 -38.347656 17.734375 -36.820312 17.484375 -35.25 C 17.242188 -33.675781 17.0625 -32.222656 16.9375 -30.890625 C 16.820312 -29.566406 16.765625 -28.601562 16.765625 -28 L 30.71875 -28 C 30.175781 -39.238281 27.878906 -44.859375 23.828125 -44.859375 Z M 23.828125 -44.859375 "/></g></g></g><g fill="#171716" fill-opacity="1"><g transform="translate(155.006615, 209.624986)"><g><path d="M 31.171875 -46.3125 C 33.109375 -46.25 34.769531 -45.550781 36.15625 -44.21875 C 37.550781 -42.894531 38.25 -41.265625 38.25 -39.328125 C 38.25 -37.398438 37.550781 -35.738281 36.15625 -34.34375 C 34.769531 -32.957031 33.109375 -32.265625 31.171875 -32.265625 C 29.296875 -32.265625 27.664062 -32.957031 26.28125 -34.34375 C 24.894531 -35.738281 24.203125 -37.398438 24.203125 -39.328125 C 24.203125 -39.929688 24.242188 -40.382812 24.328125 -40.6875 C 24.421875 -40.988281 24.46875 -41.320312 24.46875 -41.6875 C 24.46875 -42.59375 23.984375 -43.046875 23.015625 -43.046875 C 22.171875 -43.046875 21.023438 -42.679688 19.578125 -41.953125 L 19.578125 -4.984375 C 19.578125 -3.898438 19.9375 -2.929688 20.65625 -2.078125 C 21.382812 -1.234375 22.265625 -0.722656 23.296875 -0.546875 L 23.296875 0 L 2.265625 0 L 2.265625 -0.546875 C 3.296875 -0.722656 4.171875 -1.234375 4.890625 -2.078125 C 5.617188 -2.929688 5.984375 -3.898438 5.984375 -4.984375 L 5.984375 -37.25 C 5.984375 -38.394531 5.617188 -39.375 4.890625 -40.1875 C 4.171875 -41.007812 3.296875 -41.507812 2.265625 -41.6875 L 2.265625 -42.234375 L 17.765625 -44.5 C 17.828125 -44.5 17.867188 -44.5 17.890625 -44.5 C 17.921875 -44.5 17.96875 -44.5 18.03125 -44.5 C 18.519531 -44.5 18.898438 -44.347656 19.171875 -44.046875 C 19.441406 -43.742188 19.578125 -43.378906 19.578125 -42.953125 L 19.578125 -42.5 C 21.203125 -43.34375 23.101562 -44.21875 25.28125 -45.125 C 27.457031 -46.03125 29.421875 -46.425781 31.171875 -46.3125 Z M 31.171875 -46.3125 "/></g></g></g><g fill="#171716" fill-opacity="1"><g transform="translate(190.34808, 209.624986)"><g><path d="M 5.984375 -4.984375 L 5.984375 -37.25 C 5.984375 -38.394531 5.617188 -39.375 4.890625 -40.1875 C 4.171875 -41.007812 3.296875 -41.507812 2.265625 -41.6875 L 2.265625 -42.234375 L 17.765625 -44.5 C 17.828125 -44.5 17.867188 -44.5 17.890625 -44.5 C 17.921875 -44.5 17.96875 -44.5 18.03125 -44.5 C 19.0625 -44.5 19.578125 -43.984375 19.578125 -42.953125 L 19.578125 -4.984375 C 19.578125 -3.898438 19.9375 -2.929688 20.65625 -2.078125 C 21.382812 -1.234375 22.265625 -0.722656 23.296875 -0.546875 L 23.296875 0 L 2.265625 0 L 2.265625 -0.546875 C 3.296875 -0.722656 4.171875 -1.234375 4.890625 -2.078125 C 5.617188 -2.929688 5.984375 -3.898438 5.984375 -4.984375 Z M 19.84375 -56.375 C 19.84375 -54.5 19.144531 -52.863281 17.75 -51.46875 C 16.363281 -50.082031 14.707031 -49.390625 12.78125 -49.390625 C 10.84375 -49.390625 9.191406 -50.082031 7.828125 -51.46875 C 6.472656 -52.863281 5.796875 -54.5 5.796875 -56.375 C 5.796875 -58.300781 6.472656 -59.957031 7.828125 -61.34375 C 9.191406 -62.738281 10.84375 -63.4375 12.78125 -63.4375 C 14.707031 -63.4375 16.363281 -62.738281 17.75 -61.34375 C 19.144531 -59.957031 19.84375 -58.300781 19.84375 -56.375 Z M 19.84375 -56.375 "/></g></g></g><g fill="#171716" fill-opacity="1"><g transform="translate(210.737061, 209.624986)"><g><path d="M 43.40625 -4.984375 C 43.40625 -3.898438 43.765625 -2.929688 44.484375 -2.078125 C 45.210938 -1.234375 46.09375 -0.722656 47.125 -0.546875 L 47.125 0 L 26.09375 0 L 26.09375 -0.546875 C 27.125 -0.722656 28 -1.234375 28.71875 -2.078125 C 29.445312 -2.929688 29.8125 -3.898438 29.8125 -4.984375 L 29.8125 -31.71875 C 29.8125 -33.289062 30.203125 -34.53125 30.984375 -35.4375 C 31.773438 -36.34375 32.5625 -37.203125 33.34375 -38.015625 C 34.132812 -38.828125 34.53125 -39.78125 34.53125 -40.875 C 34.53125 -41.894531 33.953125 -42.675781 32.796875 -43.21875 C 31.648438 -43.769531 30.171875 -44.046875 28.359375 -44.046875 C 26.367188 -44.046875 24.585938 -43.785156 23.015625 -43.265625 C 21.441406 -42.753906 20.296875 -42.316406 19.578125 -41.953125 L 19.578125 -4.984375 C 19.578125 -3.898438 19.9375 -2.929688 20.65625 -2.078125 C 21.382812 -1.234375 22.265625 -0.722656 23.296875 -0.546875 L 23.296875 0 L 2.265625 0 L 2.265625 -0.546875 C 3.296875 -0.722656 4.171875 -1.234375 4.890625 -2.078125 C 5.617188 -2.929688 5.984375 -3.898438 5.984375 -4.984375 L 5.984375 -37.25 C 5.984375 -38.394531 5.617188 -39.375 4.890625 -40.1875 C 4.171875 -41.007812 3.296875 -41.507812 2.265625 -41.6875 L 2.265625 -42.234375 L 17.765625 -44.5 C 17.828125 -44.5 17.867188 -44.5 17.890625 -44.5 C 17.921875 -44.5 17.96875 -44.5 18.03125 -44.5 C 19.0625 -44.5 19.578125 -43.984375 19.578125 -42.953125 L 19.578125 -42.59375 C 21.265625 -43.4375 23.148438 -44.113281 25.234375 -44.625 C 27.316406 -45.144531 29.414062 -45.40625 31.53125 -45.40625 C 33.644531 -45.40625 35.609375 -44.992188 37.421875 -44.171875 C 39.234375 -43.359375 40.679688 -42.0625 41.765625 -40.28125 C 42.859375 -38.5 43.40625 -36.066406 43.40625 -32.984375 Z M 43.40625 -4.984375 "/></g></g></g></svg>