<svg xmlns="http://www.w3.org/2000/svg" xmlns:xlink="http://www.w3.org/1999/xlink" width="40" zoomAndPan="magnify" viewBox="0 0 30 30.000001" height="40" preserveAspectRatio="xMidYMid meet" version="1.0"><defs><g/></defs><g fill="#171716" fill-opacity="1"><g transform="translate(5.275601, 17.851395)"><g><path d="M 4.375 -0.8125 C 4.613281 -0.8125 4.84375 -0.867188 5.0625 -0.984375 C 5.289062 -1.097656 5.492188 -1.257812 5.671875 -1.46875 L 5.734375 -1.4375 C 5.484375 -0.976562 5.144531 -0.613281 4.71875 -0.34375 C 4.289062 -0.0703125 3.820312 0.0625 3.3125 0.0625 C 2.78125 0.0625 2.296875 -0.078125 1.859375 -0.359375 C 1.429688 -0.648438 1.085938 -1.035156 0.828125 -1.515625 C 0.566406 -1.992188 0.4375 -2.53125 0.4375 -3.125 C 0.4375 -3.707031 0.566406 -4.238281 0.828125 -4.71875 C 1.085938 -5.207031 1.429688 -5.59375 1.859375 -5.875 C 2.296875 -6.15625 2.78125 -6.296875 3.3125 -6.296875 C 3.769531 -6.296875 4.179688 -6.1875 4.546875 -5.96875 C 4.910156 -5.75 5.21875 -5.453125 5.46875 -5.078125 C 5.71875 -4.710938 5.882812 -4.289062 5.96875 -3.8125 L 2.328125 -3.8125 C 2.328125 -3.257812 2.414062 -2.753906 2.59375 -2.296875 C 2.78125 -1.835938 3.03125 -1.472656 3.34375 -1.203125 C 3.65625 -0.941406 4 -0.8125 4.375 -0.8125 Z M 3.3125 -6.21875 C 3.132812 -6.21875 2.988281 -6.15625 2.875 -6.03125 C 2.757812 -5.90625 2.664062 -5.738281 2.59375 -5.53125 C 2.519531 -5.320312 2.460938 -5.109375 2.421875 -4.890625 C 2.390625 -4.671875 2.363281 -4.46875 2.34375 -4.28125 C 2.332031 -4.101562 2.328125 -3.972656 2.328125 -3.890625 L 4.265625 -3.890625 C 4.191406 -5.441406 3.875 -6.21875 3.3125 -6.21875 Z M 3.3125 -6.21875 "/></g></g></g><g fill="#171716" fill-opacity="1"><g transform="translate(10.850472, 17.851395)"><g><path d="M 4.328125 -6.421875 C 4.597656 -6.421875 4.828125 -6.328125 5.015625 -6.140625 C 5.210938 -5.953125 5.3125 -5.722656 5.3125 -5.453125 C 5.3125 -5.191406 5.210938 -4.960938 5.015625 -4.765625 C 4.828125 -4.578125 4.597656 -4.484375 4.328125 -4.484375 C 4.066406 -4.484375 3.835938 -4.578125 3.640625 -4.765625 C 3.453125 -4.960938 3.359375 -5.191406 3.359375 -5.453125 C 3.359375 -5.535156 3.363281 -5.597656 3.375 -5.640625 C 3.382812 -5.679688 3.390625 -5.726562 3.390625 -5.78125 C 3.390625 -5.90625 3.320312 -5.96875 3.1875 -5.96875 C 3.070312 -5.96875 2.914062 -5.921875 2.71875 -5.828125 L 2.71875 -0.6875 C 2.71875 -0.539062 2.765625 -0.40625 2.859375 -0.28125 C 2.960938 -0.164062 3.085938 -0.0976562 3.234375 -0.078125 L 3.234375 0 L 0.3125 0 L 0.3125 -0.078125 C 0.457031 -0.0976562 0.578125 -0.164062 0.671875 -0.28125 C 0.773438 -0.40625 0.828125 -0.539062 0.828125 -0.6875 L 0.828125 -5.171875 C 0.828125 -5.328125 0.773438 -5.460938 0.671875 -5.578125 C 0.578125 -5.691406 0.457031 -5.757812 0.3125 -5.78125 L 0.3125 -5.859375 L 2.46875 -6.171875 C 2.476562 -6.171875 2.484375 -6.171875 2.484375 -6.171875 C 2.484375 -6.171875 2.488281 -6.171875 2.5 -6.171875 C 2.570312 -6.171875 2.625 -6.148438 2.65625 -6.109375 C 2.695312 -6.066406 2.71875 -6.019531 2.71875 -5.96875 L 2.71875 -5.90625 C 2.945312 -6.019531 3.210938 -6.140625 3.515625 -6.265625 C 3.816406 -6.390625 4.085938 -6.441406 4.328125 -6.421875 Z M 4.328125 -6.421875 "/></g></g></g><g fill="#171716" fill-opacity="1"><g transform="translate(15.758359, 17.851395)"><g><path d="M 0.828125 -0.6875 L 0.828125 -5.171875 C 0.828125 -5.328125 0.773438 -5.460938 0.671875 -5.578125 C 0.578125 -5.691406 0.457031 -5.757812 0.3125 -5.78125 L 0.3125 -5.859375 L 2.46875 -6.171875 C 2.476562 -6.171875 2.484375 -6.171875 2.484375 -6.171875 C 2.484375 -6.171875 2.488281 -6.171875 2.5 -6.171875 C 2.644531 -6.171875 2.71875 -6.101562 2.71875 -5.96875 L 2.71875 -0.6875 C 2.71875 -0.539062 2.765625 -0.40625 2.859375 -0.28125 C 2.960938 -0.164062 3.085938 -0.0976562 3.234375 -0.078125 L 3.234375 0 L 0.3125 0 L 0.3125 -0.078125 C 0.457031 -0.0976562 0.578125 -0.164062 0.671875 -0.28125 C 0.773438 -0.40625 0.828125 -0.539062 0.828125 -0.6875 Z M 2.75 -7.828125 C 2.75 -7.566406 2.648438 -7.335938 2.453125 -7.140625 C 2.265625 -6.953125 2.039062 -6.859375 1.78125 -6.859375 C 1.507812 -6.859375 1.28125 -6.953125 1.09375 -7.140625 C 0.90625 -7.335938 0.8125 -7.566406 0.8125 -7.828125 C 0.8125 -8.085938 0.90625 -8.3125 1.09375 -8.5 C 1.28125 -8.695312 1.507812 -8.796875 1.78125 -8.796875 C 2.039062 -8.796875 2.265625 -8.695312 2.453125 -8.5 C 2.648438 -8.3125 2.75 -8.085938 2.75 -7.828125 Z M 2.75 -7.828125 "/></g></g></g><g fill="#171716" fill-opacity="1"><g transform="translate(18.589787, 17.851395)"><g><path d="M 6.03125 -0.6875 C 6.03125 -0.539062 6.078125 -0.40625 6.171875 -0.28125 C 6.273438 -0.164062 6.398438 -0.0976562 6.546875 -0.078125 L 6.546875 0 L 3.625 0 L 3.625 -0.078125 C 3.769531 -0.0976562 3.890625 -0.164062 3.984375 -0.28125 C 4.085938 -0.40625 4.140625 -0.539062 4.140625 -0.6875 L 4.140625 -4.40625 C 4.140625 -4.625 4.191406 -4.796875 4.296875 -4.921875 C 4.410156 -5.046875 4.519531 -5.164062 4.625 -5.28125 C 4.738281 -5.394531 4.796875 -5.523438 4.796875 -5.671875 C 4.796875 -5.816406 4.710938 -5.925781 4.546875 -6 C 4.390625 -6.070312 4.1875 -6.109375 3.9375 -6.109375 C 3.65625 -6.109375 3.40625 -6.070312 3.1875 -6 C 2.976562 -5.9375 2.820312 -5.878906 2.71875 -5.828125 L 2.71875 -0.6875 C 2.71875 -0.539062 2.765625 -0.40625 2.859375 -0.28125 C 2.960938 -0.164062 3.085938 -0.0976562 3.234375 -0.078125 L 3.234375 0 L 0.3125 0 L 0.3125 -0.078125 C 0.457031 -0.0976562 0.578125 -0.164062 0.671875 -0.28125 C 0.773438 -0.40625 0.828125 -0.539062 0.828125 -0.6875 L 0.828125 -5.171875 C 0.828125 -5.328125 0.773438 -5.460938 0.671875 -5.578125 C 0.578125 -5.691406 0.457031 -5.757812 0.3125 -5.78125 L 0.3125 -5.859375 L 2.46875 -6.171875 C 2.476562 -6.171875 2.484375 -6.171875 2.484375 -6.171875 C 2.484375 -6.171875 2.488281 -6.171875 2.5 -6.171875 C 2.644531 -6.171875 2.71875 -6.101562 2.71875 -5.96875 L 2.71875 -5.90625 C 2.945312 -6.03125 3.207031 -6.125 3.5 -6.1875 C 3.789062 -6.257812 4.082031 -6.296875 4.375 -6.296875 C 4.664062 -6.296875 4.9375 -6.238281 5.1875 -6.125 C 5.445312 -6.019531 5.648438 -5.84375 5.796875 -5.59375 C 5.953125 -5.34375 6.03125 -5.003906 6.03125 -4.578125 Z M 6.03125 -0.6875 "/></g></g></g></svg>