<svg xmlns="http://www.w3.org/2000/svg" xmlns:xlink="http://www.w3.org/1999/xlink" width="40" zoomAndPan="magnify" viewBox="0 0 30 30.000001" height="40" preserveAspectRatio="xMidYMid meet" version="1.0"><defs><g/></defs><g fill="#362312" fill-opacity="1"><g transform="translate(1.69828, 19.817231)"><g><path d="M 5.78125 -1.0625 C 6.09375 -1.0625 6.394531 -1.140625 6.6875 -1.296875 C 6.988281 -1.453125 7.253906 -1.664062 7.484375 -1.9375 L 7.5625 -1.890625 C 7.226562 -1.296875 6.78125 -0.816406 6.21875 -0.453125 C 5.65625 -0.0976562 5.035156 0.078125 4.359375 0.078125 C 3.660156 0.078125 3.023438 -0.109375 2.453125 -0.484375 C 1.890625 -0.859375 1.4375 -1.363281 1.09375 -2 C 0.75 -2.632812 0.578125 -3.335938 0.578125 -4.109375 C 0.578125 -4.890625 0.75 -5.597656 1.09375 -6.234375 C 1.4375 -6.867188 1.890625 -7.375 2.453125 -7.75 C 3.023438 -8.125 3.660156 -8.3125 4.359375 -8.3125 C 4.972656 -8.3125 5.519531 -8.164062 6 -7.875 C 6.476562 -7.59375 6.878906 -7.203125 7.203125 -6.703125 C 7.535156 -6.210938 7.757812 -5.65625 7.875 -5.03125 L 3.0625 -5.03125 C 3.0625 -4.300781 3.179688 -3.632812 3.421875 -3.03125 C 3.671875 -2.425781 4 -1.945312 4.40625 -1.59375 C 4.820312 -1.238281 5.28125 -1.0625 5.78125 -1.0625 Z M 4.359375 -8.21875 C 4.128906 -8.21875 3.9375 -8.128906 3.78125 -7.953125 C 3.632812 -7.785156 3.507812 -7.566406 3.40625 -7.296875 C 3.3125 -7.023438 3.242188 -6.742188 3.203125 -6.453125 C 3.160156 -6.171875 3.125 -5.90625 3.09375 -5.65625 C 3.070312 -5.414062 3.0625 -5.238281 3.0625 -5.125 L 5.625 -5.125 C 5.519531 -7.1875 5.097656 -8.21875 4.359375 -8.21875 Z M 4.359375 -8.21875 "/></g></g></g><g fill="#362312" fill-opacity="1"><g transform="translate(9.047852, 19.817231)"><g><path d="M 5.703125 -8.484375 C 6.054688 -8.472656 6.359375 -8.34375 6.609375 -8.09375 C 6.867188 -7.851562 7 -7.554688 7 -7.203125 C 7 -6.847656 6.867188 -6.539062 6.609375 -6.28125 C 6.359375 -6.03125 6.054688 -5.90625 5.703125 -5.90625 C 5.359375 -5.90625 5.0625 -6.03125 4.8125 -6.28125 C 4.5625 -6.539062 4.4375 -6.847656 4.4375 -7.203125 C 4.4375 -7.316406 4.441406 -7.398438 4.453125 -7.453125 C 4.472656 -7.503906 4.484375 -7.566406 4.484375 -7.640625 C 4.484375 -7.796875 4.394531 -7.875 4.21875 -7.875 C 4.0625 -7.875 3.847656 -7.8125 3.578125 -7.6875 L 3.578125 -0.90625 C 3.578125 -0.707031 3.644531 -0.53125 3.78125 -0.375 C 3.914062 -0.226562 4.078125 -0.132812 4.265625 -0.09375 L 4.265625 0 L 0.421875 0 L 0.421875 -0.09375 C 0.609375 -0.132812 0.765625 -0.226562 0.890625 -0.375 C 1.023438 -0.53125 1.09375 -0.707031 1.09375 -0.90625 L 1.09375 -6.8125 C 1.09375 -7.03125 1.023438 -7.210938 0.890625 -7.359375 C 0.765625 -7.503906 0.609375 -7.597656 0.421875 -7.640625 L 0.421875 -7.734375 L 3.25 -8.140625 C 3.257812 -8.140625 3.265625 -8.140625 3.265625 -8.140625 C 3.273438 -8.140625 3.285156 -8.140625 3.296875 -8.140625 C 3.390625 -8.140625 3.457031 -8.113281 3.5 -8.0625 C 3.550781 -8.007812 3.578125 -7.941406 3.578125 -7.859375 L 3.578125 -7.78125 C 3.878906 -7.9375 4.226562 -8.097656 4.625 -8.265625 C 5.03125 -8.429688 5.390625 -8.503906 5.703125 -8.484375 Z M 5.703125 -8.484375 "/></g></g></g><g fill="#362312" fill-opacity="1"><g transform="translate(15.518074, 19.817231)"><g><path d="M 1.09375 -0.90625 L 1.09375 -6.8125 C 1.09375 -7.03125 1.023438 -7.210938 0.890625 -7.359375 C 0.765625 -7.503906 0.609375 -7.597656 0.421875 -7.640625 L 0.421875 -7.734375 L 3.25 -8.140625 C 3.257812 -8.140625 3.265625 -8.140625 3.265625 -8.140625 C 3.273438 -8.140625 3.285156 -8.140625 3.296875 -8.140625 C 3.484375 -8.140625 3.578125 -8.046875 3.578125 -7.859375 L 3.578125 -0.90625 C 3.578125 -0.707031 3.644531 -0.53125 3.78125 -0.375 C 3.914062 -0.226562 4.078125 -0.132812 4.265625 -0.09375 L 4.265625 0 L 0.421875 0 L 0.421875 -0.09375 C 0.609375 -0.132812 0.765625 -0.226562 0.890625 -0.375 C 1.023438 -0.53125 1.09375 -0.707031 1.09375 -0.90625 Z M 3.640625 -10.328125 C 3.640625 -9.984375 3.507812 -9.679688 3.25 -9.421875 C 3 -9.171875 2.695312 -9.046875 2.34375 -9.046875 C 1.988281 -9.046875 1.6875 -9.171875 1.4375 -9.421875 C 1.1875 -9.679688 1.0625 -9.984375 1.0625 -10.328125 C 1.0625 -10.679688 1.1875 -10.984375 1.4375 -11.234375 C 1.6875 -11.484375 1.988281 -11.609375 2.34375 -11.609375 C 2.695312 -11.609375 3 -11.484375 3.25 -11.234375 C 3.507812 -10.984375 3.640625 -10.679688 3.640625 -10.328125 Z M 3.640625 -10.328125 "/></g></g></g><g fill="#362312" fill-opacity="1"><g transform="translate(19.250708, 19.817231)"><g><path d="M 7.953125 -0.90625 C 7.953125 -0.707031 8.015625 -0.53125 8.140625 -0.375 C 8.273438 -0.226562 8.4375 -0.132812 8.625 -0.09375 L 8.625 0 L 4.78125 0 L 4.78125 -0.09375 C 4.96875 -0.132812 5.125 -0.226562 5.25 -0.375 C 5.382812 -0.53125 5.453125 -0.707031 5.453125 -0.90625 L 5.453125 -5.8125 C 5.453125 -6.09375 5.523438 -6.316406 5.671875 -6.484375 C 5.816406 -6.648438 5.960938 -6.804688 6.109375 -6.953125 C 6.253906 -7.109375 6.328125 -7.285156 6.328125 -7.484375 C 6.328125 -7.671875 6.21875 -7.8125 6 -7.90625 C 5.789062 -8.007812 5.519531 -8.0625 5.1875 -8.0625 C 4.820312 -8.0625 4.492188 -8.015625 4.203125 -7.921875 C 3.921875 -7.828125 3.710938 -7.75 3.578125 -7.6875 L 3.578125 -0.90625 C 3.578125 -0.707031 3.644531 -0.53125 3.78125 -0.375 C 3.914062 -0.226562 4.078125 -0.132812 4.265625 -0.09375 L 4.265625 0 L 0.421875 0 L 0.421875 -0.09375 C 0.609375 -0.132812 0.765625 -0.226562 0.890625 -0.375 C 1.023438 -0.53125 1.09375 -0.707031 1.09375 -0.90625 L 1.09375 -6.8125 C 1.09375 -7.03125 1.023438 -7.210938 0.890625 -7.359375 C 0.765625 -7.503906 0.609375 -7.597656 0.421875 -7.640625 L 0.421875 -7.734375 L 3.25 -8.140625 C 3.257812 -8.140625 3.265625 -8.140625 3.265625 -8.140625 C 3.273438 -8.140625 3.285156 -8.140625 3.296875 -8.140625 C 3.484375 -8.140625 3.578125 -8.046875 3.578125 -7.859375 L 3.578125 -7.796875 C 3.890625 -7.953125 4.234375 -8.078125 4.609375 -8.171875 C 4.992188 -8.265625 5.378906 -8.3125 5.765625 -8.3125 C 6.160156 -8.3125 6.519531 -8.234375 6.84375 -8.078125 C 7.175781 -7.929688 7.441406 -7.695312 7.640625 -7.375 C 7.847656 -7.050781 7.953125 -6.609375 7.953125 -6.046875 Z M 7.953125 -0.90625 "/></g></g></g></svg>